<?xml version="1.0" encoding="UTF-8" standalone="no"?>
<!-- Created with Inkscape (http://www.inkscape.org/) -->

<svg
   xmlns:dc="http://purl.org/dc/elements/1.1/"
   xmlns:cc="http://creativecommons.org/ns#"
   xmlns:rdf="http://www.w3.org/1999/02/22-rdf-syntax-ns#"
   xmlns:svg="http://www.w3.org/2000/svg"
   xmlns="http://www.w3.org/2000/svg"
   xmlns:sodipodi="http://sodipodi.sourceforge.net/DTD/sodipodi-0.dtd"
   xmlns:inkscape="http://www.inkscape.org/namespaces/inkscape"
   width="210mm"
   height="297mm"
   viewBox="0 0 744.09448819 1052.3622047"
   id="svg2"
   version="1.1"
   inkscape:version="0.91 r13725"
   sodipodi:docname="xentrifuge.svg"
   inkscape:export-filename="/home/joel/Desktop/printings/pix/svg/xentrifuge.svg.png"
   inkscape:export-xdpi="300.5"
   inkscape:export-ydpi="300.5">
  <defs
     id="defs4">
    <filter
       inkscape:collect="always"
       style="color-interpolation-filters:sRGB"
       id="filter4866"
       x="-0.061073124"
       width="1.1221462"
       y="-0.039536862"
       height="1.0790737">
      <feGaussianBlur
         inkscape:collect="always"
         stdDeviation="22.357148"
         id="feGaussianBlur4868" />
    </filter>
    <filter
       inkscape:collect="always"
       style="color-interpolation-filters:sRGB"
       id="filter4898"
       x="-0.12295995"
       width="1.2459199"
       y="-0.063788552"
       height="1.1275771">
      <feGaussianBlur
         inkscape:collect="always"
         stdDeviation="24.28142"
         id="feGaussianBlur4900" />
    </filter>
  </defs>
  <sodipodi:namedview
     id="base"
     pagecolor="#000000"
     bordercolor="#666666"
     borderopacity="1.0"
     inkscape:pageopacity="0"
     inkscape:pageshadow="2"
     inkscape:zoom="0.35"
     inkscape:cx="-505.08582"
     inkscape:cy="1513.2958"
     inkscape:document-units="px"
     inkscape:current-layer="layer2"
     showgrid="false"
     showborder="false"
     inkscape:window-width="1217"
     inkscape:window-height="700"
     inkscape:window-x="130"
     inkscape:window-y="43"
     inkscape:window-maximized="0" />
  <metadata
     id="metadata7">
    <rdf:RDF>
      <cc:Work
         rdf:about="">
        <dc:format>image/svg+xml</dc:format>
        <dc:type
           rdf:resource="http://purl.org/dc/dcmitype/StillImage" />
        <dc:title />
      </cc:Work>
    </rdf:RDF>
  </metadata>
  <g
     inkscape:groupmode="layer"
     id="layer2"
     inkscape:label="Layer 2"
     style="display:inline">
    <g
       id="g4921"
       transform="translate(-1342.8572,-1380)">
      <path
         sodipodi:nodetypes="csscsssscssccsasascsscsasascsscsssszsccsccssssscsscssssc"
         inkscape:connector-curvature="0"
         id="path6958"
         d="m 675.71428,648.07648 c 0,0 -55.91956,18.28533 -78.92857,35.35715 -23.75585,17.62594 -39.70129,46.6094 -48.92857,71.42857 -7.68598,20.67344 -3.57143,66.07143 -3.57143,66.07143 0,0 51.07275,-42.29871 75,-46.42858 20.28803,-3.50173 42.32169,-4.65436 62.14286,8.57144 17.89946,11.94353 38.24027,31.99113 37.14286,55 -1.36741,28.66998 -17.65646,56.96906 -42.5,71.78571 -20.7181,12.35624 -69.64286,8.21429 -69.64286,8.21429 0,0 25.25495,22.3904 32.85715,36.07142 8.10611,14.58787 17.99229,40.68212 18.57142,56.78579 0.56764,15.7843 -8.57142,43.5714 -8.57142,43.5714 l 61.07142,-31.4284 c 0,0 -6.07053,24.1165 -8.57143,43.2141 -1.9443,14.8473 -5.76528,43.069 -4.64286,64.6429 1.45114,27.8921 8.69498,60.7453 14.64286,82.5 5.60647,20.506 9.7542,41.4953 17.14286,61.4286 8.58874,23.1709 18.77118,47.7094 31.42858,67.1429 6.66557,10.2339 23.57142,36.7857 23.57142,36.7857 0,0 4.75728,-14.2564 7.5,-30 3.19388,-18.3334 8.64176,-35.2557 15.71429,-53.5715 6.08189,-15.7503 25.35714,-48.9285 25.35714,-48.9285 0,0 -22.03635,-3.1078 -31.07143,-12.1429 -8.84684,-8.8469 -18.7561,-23.1137 -18.21428,-36.7857 0.56027,-14.1376 11.54455,-31.2674 21.78571,-36.4286 10.86289,-5.4746 33.37529,-8.6213 49.28572,-4.2857 9.30646,2.536 17.65193,10.3426 23.57143,16.7857 7.46653,8.127 12.49999,27.8572 12.49999,27.8572 0,0 58.36888,-14.2962 74.99999,-28.9287 14.03236,-12.346 39.20267,-42.9913 44.99997,-59.9999 8.9924,-26.3825 6.4286,-81.7856 6.4286,-81.7856 0,0 -17.80721,22.3357 -28.92861,29.9999 -11.2558,7.7568 -32.80304,14.636 -47.8571,15 -23.36109,0.5648 -39.6132,-2.4217 -58.92856,-17.8572 -13.10772,-10.4748 -25.89603,-27.984 -27.85715,-45.3571 -1.97741,-17.51737 1.70913,-37.5183 13.21429,-52.14296 11.50517,-14.6246 31.83292,-24.72348 50.35714,-29.64285 16.59411,-4.40681 48.92856,0.71429 48.92856,0.71429 l -33.21428,-34.28572 c 0,0 -18.28424,-22.85576 -21.07142,-37.5 -3.82077,-20.07495 2.5,-61.07143 2.5,-61.07143 -35.55537,17.14232 -40.35714,21.30952 -57.85714,30 0,0 11.41097,-40.04631 15,-60.35714 5.07734,-28.73342 -0.48855,-56.62311 -5,-87.85715 -2.88039,-19.94166 -9.46741,-45.91362 -15,-65.71428 -5.75463,-20.59536 -13.45295,-39.92769 -22.14286,-61.78571 -4.93289,-12.40785 -14.81463,-30.12772 -21.07143,-41.78572 -7.65388,-14.26112 -28.57143,-45.71429 -28.57143,-45.71429 0,0 -6.11194,43.09913 -9.64285,58.92857 -3.746,16.79368 -7.42262,30.56159 -17.14286,46.42857 -7.39592,12.07286 -23.92857,34.64286 -23.92857,34.64286 0,0 32.92898,3.77295 43.92857,16.07143 8.6259,9.64449 10.22257,29.69849 0.71429,45.35714 -6.20807,10.22372 -4.46067,12.55714 -21.52994,18.52466 -13.7728,4.81505 -29.95787,5.26113 -38.82721,3.97534 -25.66118,-3.7201 -37.14286,-41.07143 -37.14286,-41.07143 z"
         style="fill:#ffffff;fill-rule:evenodd;stroke:#000000;stroke-width:1px;stroke-linecap:butt;stroke-linejoin:miter;stroke-opacity:1;filter:url(#filter4898)" />
      <path
         style="fill:#000000;fill-rule:evenodd;stroke:#000000;stroke-width:1px;stroke-linecap:butt;stroke-linejoin:miter;stroke-opacity:1"
         d="m 674.28571,646.64791 c 0,0 -55.91954,18.28533 -78.92854,35.35715 -23.7559,17.62594 -39.7013,46.6094 -48.9286,71.42857 -7.686,20.67344 -3.5714,66.07143 -3.5714,66.07143 0,0 51.0727,-42.29871 75,-46.42858 20.28804,-3.50173 42.32174,-4.65436 62.14284,8.57144 17.8995,11.94353 38.2403,31.99113 37.1429,55 -1.3674,28.66998 -17.6565,56.96906 -42.5,71.78571 -20.7181,12.35624 -69.64294,8.21429 -69.64294,8.21429 0,0 25.25504,22.3904 32.85724,36.07142 8.1061,14.58787 17.9923,40.68212 18.5714,56.78586 0.5676,15.7842 -8.5714,43.5713 -8.5714,43.5713 l 61.0714,-31.4284 c 0,0 -6.0705,24.1165 -8.5714,43.2141 -1.9443,14.8473 -5.7653,43.069 -4.6429,64.6429 1.4511,27.8921 8.695,60.7453 14.6429,82.5 5.6064,20.506 9.7542,41.4953 17.1428,61.4286 8.5888,23.1709 18.7712,47.7094 31.4286,67.1429 6.6656,10.2339 23.5714,36.7857 23.5714,36.7857 0,0 4.7573,-14.2564 7.5,-30 3.1939,-18.3334 8.6418,-35.2557 15.7143,-53.5715 6.0819,-15.7503 25.3572,-48.9285 25.3572,-48.9285 0,0 -22.0364,-3.1078 -31.0715,-12.1429 -8.8468,-8.8469 -18.7561,-23.1137 -18.2143,-36.7857 0.5603,-14.1376 11.5446,-31.2674 21.7858,-36.4286 10.8628,-5.4746 33.3752,-8.6213 49.2857,-4.2857 9.3064,2.536 17.6519,10.3426 23.5714,16.7857 7.4665,8.127 12.5,27.8572 12.5,27.8572 0,0 58.3689,-14.2962 75,-28.9287 14.0323,-12.346 39.20269,-42.9913 44.99999,-59.9999 8.9924,-26.3825 6.4286,-81.7856 6.4286,-81.7856 0,0 -17.80739,22.3357 -28.92869,29.9999 -11.2558,7.7568 -32.803,14.636 -47.8571,15 -23.361,0.5648 -39.6132,-2.4217 -58.9285,-17.8572 -13.1077,-10.4748 -25.896,-27.984 -27.8572,-45.357 -1.9774,-17.51744 1.7092,-37.51837 13.2143,-52.14303 11.5052,-14.6246 31.8329,-24.72348 50.3572,-29.64285 16.5941,-4.40681 48.9285,0.71429 48.9285,0.71429 l -33.2143,-34.28572 c 0,0 -18.2842,-22.85576 -21.0714,-37.5 -3.8207,-20.07495 2.5,-61.07143 2.5,-61.07143 -35.5553,17.14232 -40.3571,21.30952 -57.8571,30 0,0 11.411,-40.04631 15,-60.35714 5.0773,-28.73342 -0.4886,-56.62311 -5,-87.85715 -2.8804,-19.94166 -9.4674,-45.91362 -15,-65.71428 -5.7546,-20.59536 -13.453,-39.92769 -22.1429,-61.78571 -4.9329,-12.40785 -14.8146,-30.12772 -21.0714,-41.78572 -7.6539,-14.26112 -28.5714,-45.71429 -28.5714,-45.71429 0,0 -6.112,43.09913 -9.6429,58.92857 -3.746,16.79368 -7.4226,30.56159 -17.1428,46.42857 -7.396,12.07286 -23.9286,34.64286 -23.9286,34.64286 0,0 32.929,3.77295 43.9286,16.07143 8.6259,9.64449 10.2225,29.69849 0.7142,45.35714 -6.208,10.22372 -4.4606,12.55714 -21.5299,18.52466 -13.7728,4.81505 -29.9579,5.26113 -38.8272,3.97534 -25.6612,-3.7201 -37.1429,-41.07143 -37.1429,-41.07143 z"
         id="path4728"
         inkscape:connector-curvature="0"
         sodipodi:nodetypes="csscsssscssccsasascsscsasascsscsssszsccsccssssscsscssssc" />
      <path
         style="fill:#ffffff;fill-opacity:1;fill-rule:evenodd;stroke:#000000;stroke-width:1px;stroke-linecap:butt;stroke-linejoin:miter;stroke-opacity:1;filter:url(#filter4866)"
         d="M 781.42798,241.77137 347.14278,918.91395 785.71508,1598.9139 1225.7151,918.91395 781.42798,241.77137 Z m 0.2128,119.03906 367.40432,559.96875 -363.86132,562.33202 -362.6797,-562.33202 359.1367,-559.96875 z"
         id="path4809"
         inkscape:connector-curvature="0" />
      <path
         inkscape:connector-curvature="0"
         id="path6960"
         d="M 781.42806,243.79169 347.14278,920.93427 785.71516,1600.9343 1225.7151,920.93427 781.42806,243.79169 Z m 0.2128,119.03906 367.40424,559.96875 -363.86124,562.3321 -362.6798,-562.3321 359.1368,-559.96875 z"
         style="fill:#000000;fill-opacity:1;fill-rule:evenodd;stroke:#000000;stroke-width:1px;stroke-linecap:butt;stroke-linejoin:miter;stroke-opacity:1" />
    </g>
  </g>
</svg>
